<svg xmlns="http://www.w3.org/2000/svg"
shape-rendering="geometricPrecision"
width="4000" height="4000" viewBox="0 0 776 776">
  <metadata>null</metadata>

<path d="
M 35.972 553.103
C 36.741 547.366 37.841 542.079 40.674 536.943
C 46.948 525.57 59.498 518.784 72.336 518.644
C 80.972 518.55 89.607 521.393 96.232 526.993
C 97.75 528.275 99.082 529.698 100.389 531.187
C 100.729 531.573 101.531 532.232 101.419 532.773
C 99.919 535.111 97.403 536.99 95.475 538.976
C 94.956 539.511 94.417 540.597 93.719 540.887
C 89.309 537.028 85.63 533.271 79.828 531.499
C 76.935 530.616 74.119 530.431 71.124 530.584
C 68.353 530.725 65.618 531.442 63.07 532.53
C 44.679 540.38 43.649 566.725 59.914 577.23
C 62.93 579.179 66.449 580.27 69.997 580.694
C 74.227 581.201 78.343 580.557 82.337 579.166
C 87.037 577.53 90.956 574.048 94.051 570.276
C 94.713 570.402 95.553 571.531 96.098 572.019
C 97.861 573.596 100.497 575.435 101.8 577.396
C 100.743 580.113 97.946 582.762 95.698 584.531
C 89.467 589.433 81.865 592.216 73.951 592.475
C 52.225 593.188 34.269 574.948 35.972 553.103 Z"
opacity="1" fill="rgb(6,45,63)" fill-rule="evenodd" />
<path d="
M 111.449 550.096
C 112.069 545.535 113.624 540.993 115.921 537.012
C 117.941 533.512 120.575 530.355 123.648 527.733
C 139.769 513.977 164.651 516.462 177.666 533.192
C 180.413 536.723 182.311 540.829 183.516 545.12
C 184.934 550.169 185.238 555.759 184.493 560.944
C 183.078 570.789 177.704 579.844 169.648 585.705
C 154.334 596.846 130.194 594.201 118.72 578.737
C 116.227 575.378 114.123 571.844 112.81 567.845
C 110.932 562.124 110.641 556.039 111.449 550.096 Z
M 123.46 553.12
C 123.071 557.895 123.719 562.945 125.833 567.287
C 127.175 570.044 129.026 572.569 131.309 574.621
C 143.187 585.298 163.037 581.77 169.994 567.221
C 171.322 564.445 172.164 561.486 172.414 558.419
C 172.803 553.672 172.349 548.985 170.302 544.623
C 168.941 541.723 167.02 538.999 164.616 536.873
C 152.32 526.002 132.907 529.957 125.718 544.665
C 124.453 547.253 123.694 550.255 123.46 553.12 Z"
opacity="1" fill="rgb(6,44,62)" fill-rule="evenodd" />
<path d="
M 185.962 121.112
C 187.693 106.758 196.918 94.621 211.234 90.745
C 218.485 88.782 226.559 89.605 234.011 89.614
C 246.677 89.629 259.344 89.619 272.01 89.632
C 353.509 89.711 435.011 89.713 516.51 89.613
C 526.009 89.602 535.508 89.634 545.007 89.574
C 550.702 89.538 556.818 88.9 562.419 90.133
C 574.519 92.797 585.004 101.445 588.87 113.368
C 590.307 117.803 590.42 122.25 590.384 126.865
C 586.985 126.565 583.418 126.883 580.003 126.886
C 572.505 126.893 565.007 126.91 557.509 126.929
C 535.843 126.984 514.174 126.956 492.507 126.911
C 423.01 126.766 353.505 126.774 284.008 126.922
C 262.509 126.968 241.009 126.926 219.509 126.961
C 212.175 126.973 204.841 126.98 197.507 126.966
C 193.76 126.958 189.784 127.323 186.066 126.865
C 185.813 124.948 185.842 123.045 185.962 121.112 Z"
opacity="1" fill="rgb(7,44,62)" fill-rule="evenodd" />
<path d="
M 186.001 428.092
C 186.074 427.53 186.044 427.862 186.053 427.094
C 186.574 426.581 187.763 426.788 188.498 426.778
C 190.666 426.75 192.835 426.737 195.003 426.736
C 201.837 426.733 208.67 426.719 215.504 426.729
C 218.112 426.732 221.951 426.044 224.412 426.913
C 224.176 430.758 224.304 434.65 224.284 438.501
C 224.272 440.736 224.021 443.172 224.285 445.383
C 217.542 445.213 210.756 445.456 204.009 445.46
C 198.177 445.463 192.28 445.193 186.457 445.454
C 185.549 444.477 186.036 441.797 186.044 440.52
C 186.069 436.376 186.032 432.234 186.001 428.092 Z"
opacity="1" fill="rgb(4,45,64)" fill-rule="evenodd" />
<path d="
M 186.083 134.662
C 194.911 134.228 203.796 134.425 212.633 134.391
C 215.422 134.381 218.21 134.365 220.999 134.357
C 222.074 134.354 223.433 134.085 224.449 134.417
C 224.124 138.737 224.4 143.16 224.365 147.493
C 224.349 149.439 223.894 152.079 224.368 153.951
C 224.152 154.296 222.599 154.021 222.233 154.002
C 219.99 153.888 217.741 153.892 215.496 153.882
C 205.88 153.838 195.86 154.656 186.29 153.739
C 185.428 147.544 186.244 140.912 186.083 134.662 Z"
opacity="1" fill="rgb(132,140,159)" fill-rule="evenodd" />
<path d="
M 186.242 161.296
C 195.313 161.47 204.426 161.216 213.504 161.234
C 216.005 161.239 218.507 161.264 221.008 161.264
C 222.015 161.263 223.482 161 224.401 161.404
C 223.99 167.638 223.82 174.451 224.298 180.679
C 215.704 180.588 207.095 180.722 198.499 180.74
C 194.532 180.749 190.261 181.181 186.328 180.707
C 185.95 177.198 186.202 173.532 186.188 170.004
C 186.176 167.152 185.854 164.122 186.242 161.296 Z"
opacity="1" fill="rgb(8,46,65)" fill-rule="evenodd" />
<path d="
M 186.24 188.222
C 198.804 187.474 211.622 187.929 224.204 188.129
C 224.966 189.076 224.409 191.783 224.409 193.011
C 224.409 197.697 224.039 202.468 224.285 207.143
C 211.711 207.111 198.992 206.541 186.431 207.001
C 185.958 204.978 186.266 202.58 186.258 200.504
C 186.244 196.41 186.257 192.315 186.24 188.222 Z"
opacity="1" fill="rgb(5,44,62)" fill-rule="evenodd" />
<path d="
M 186.279 214.757
C 189.402 214.095 192.841 214.44 196.02 214.424
C 201.846 214.394 207.672 214.383 213.498 214.389
C 215.998 214.391 218.499 214.385 220.999 214.388
C 222.028 214.389 223.454 214.1 224.404 214.475
C 224.035 220.816 224.105 227.289 224.096 233.639
C 223.452 233.95 221.951 233.615 221.233 233.6
C 218.722 233.549 216.217 233.403 213.704 233.396
C 204.632 233.373 195.515 233.128 186.449 233.407
C 185.731 232.508 186.243 229.68 186.236 228.502
C 186.21 223.927 186.13 219.33 186.279 214.757 Z"
opacity="1" fill="rgb(126,134,155)" fill-rule="evenodd" />
<path d="
M 186.283 240.798
C 198.86 240.887 211.636 239.922 224.194 240.657
C 224.204 245.102 224.236 249.552 224.225 253.999
C 224.22 255.959 223.872 258.284 224.211 260.205
C 220.214 260.607 216.018 260.246 211.998 260.244
C 203.438 260.239 194.871 260.152 186.312 260.216
C 185.657 253.847 186.318 247.196 186.283 240.798 Z"
opacity="1" fill="rgb(136,143,161)" fill-rule="evenodd" />
<path d="
M 186.12 267.683
C 195.553 267.163 205.054 267.364 214.502 267.382
C 216.836 267.387 219.17 267.417 221.504 267.409
C 222.154 267.407 223.819 267.147 224.268 267.559
C 224.297 272.371 224.221 277.191 224.21 282.004
C 224.208 283.101 224.272 284.201 224.247 285.297
C 224.243 285.48 224.306 286.352 224.128 286.406
C 215.275 286.148 206.367 286.478 197.507 286.455
C 193.895 286.446 189.769 286.937 186.218 286.309
C 185.851 280.134 186.135 273.869 186.12 267.683 Z"
opacity="1" fill="rgb(5,44,63)" fill-rule="evenodd" />
<path d="
M 186.298 293.859
C 195.349 294.123 204.445 293.776 213.501 293.771
C 216.002 293.77 218.502 293.794 221.003 293.813
C 222.006 293.821 223.508 293.511 224.408 293.936
C 224.171 298.101 224.348 302.323 224.325 306.495
C 224.312 308.692 223.933 311.314 224.329 313.466
C 224.304 313.538 222.436 313.404 222.222 313.402
C 219.981 313.386 217.739 313.379 215.498 313.369
C 208.998 313.341 202.499 313.282 195.999 313.276
C 192.846 313.273 189.398 313.657 186.279 313.247
C 185.982 309.876 186.206 306.386 186.204 303.002
C 186.202 299.986 185.957 296.857 186.298 293.859 Z"
opacity="1" fill="rgb(135,143,162)" fill-rule="evenodd" />
<path d="
M 186.216 320.778
C 194.476 320.724 202.743 320.63 211.009 320.636
C 215.382 320.639 219.887 320.995 224.243 320.644
C 223.764 325.154 224.153 329.958 224.147 334.499
C 224.145 336.216 224.425 338.21 224.067 339.89
C 211.528 339.812 198.964 339.863 186.426 339.975
C 185.788 338.323 186.239 335.779 186.231 334.004
C 186.211 329.608 186.002 325.167 186.216 320.778 Z"
opacity="1" fill="rgb(7,45,63)" fill-rule="evenodd" />
<path d="
M 186.247 347.764
C 190.376 346.545 195.708 347.338 199.999 347.325
C 208.028 347.299 216.543 346.561 224.519 347.385
C 225.06 348.585 224.436 351.403 224.437 352.76
C 224.443 357.391 224.16 362.074 224.302 366.694
C 221.517 367.006 218.527 366.67 215.725 366.642
C 209.314 366.58 202.915 366.369 196.499 366.36
C 193.999 366.356 191.499 366.373 189 366.336
C 188.262 366.325 186.927 366.61 186.296 366.256
C 185.95 360.138 186.122 353.891 186.247 347.764 Z"
opacity="1" fill="rgb(131,140,158)" fill-rule="evenodd" />
<path d="
M 186.263 373.802
C 198.857 373.805 211.626 373.011 224.206 373.746
C 224.912 374.776 224.291 377.708 224.285 379
C 224.264 383.548 223.869 388.297 224.226 392.823
C 223.592 393.085 222.417 392.855 221.73 392.858
C 219.82 392.867 217.911 392.828 216.001 392.826
C 209.168 392.821 202.334 392.797 195.5 392.813
C 193.333 392.818 191.166 392.82 188.999 392.805
C 188.216 392.8 186.934 393.123 186.244 392.79
C 186.127 386.486 186.005 380.104 186.263 373.802 Z"
opacity="1" fill="rgb(6,45,64)" fill-rule="evenodd" />
<path d="
M 186.295 400.342
C 195.694 400.332 205.1 400.323 214.5 400.222
C 216.835 400.197 219.168 400.166 221.502 400.165
C 222.335 400.165 223.769 399.891 224.424 400.395
C 224.131 405.069 224.399 409.811 224.333 414.495
C 224.313 415.962 224.792 418.298 224.262 419.641
C 219.063 419.989 213.704 419.524 208.499 419.433
C 201.156 419.304 193.786 419.328 186.444 419.451
C 185.667 418.909 186.15 415.933 186.146 415.002
C 186.129 410.339 185.405 404.915 186.295 400.342 Z"
opacity="1" fill="rgb(138,144,162)" fill-rule="evenodd" />
<path d="
M 199.492 571.119
C 200.203 564.907 199.565 558.254 199.574 551.999
C 199.59 541.342 199.929 530.621 199.589 519.974
C 200.404 519.232 201.346 519.508 202.377 519.497
C 204.587 519.473 206.799 519.47 209.009 519.434
C 209.654 519.423 211.295 519.132 211.763 519.571
C 212.358 534.319 211.654 549.235 211.658 564
C 211.659 568 211.642 572 211.674 576
C 211.684 577.22 211.231 579.436 211.842 580.467
C 220.437 579.771 229.383 580.366 238.01 580.419
C 240.008 580.431 242.004 580.501 244 580.514
C 244.773 580.519 245.954 580.294 246.47 580.891
C 246.275 584.397 246.529 587.954 246.406 591.47
C 241.008 592.334 234.969 591.607 229.504 591.588
C 219.602 591.554 209.668 591.799 199.773 591.516
C 199.067 589.225 199.451 586.377 199.456 583.995
C 199.465 579.711 199.32 575.4 199.492 571.119 Z"
opacity="1" fill="rgb(6,45,63)" fill-rule="evenodd" />
<path d="
M 209.886 615.779
C 214.197 614.75 219.58 615.571 224.01 615.587
C 235.552 615.629 247.316 614.906 257.345 621.681
C 275.38 633.864 277.982 663.851 261.637 678.626
C 247.312 691.574 227.522 686.8 210.01 687.868
C 209.615 685.335 209.915 682.558 209.919 679.997
C 209.927 675.164 209.918 670.33 209.916 665.497
C 209.908 648.932 210.173 632.341 209.886 615.779 Z
M 222.412 627.421
C 222.332 627.542 222.253 627.662 222.173 627.783
C 221.417 639.602 222.148 651.658 222.163 663.502
C 222.166 666.574 222.162 669.646 222.163 672.719
C 222.163 673.741 221.842 675.648 222.44 676.467
C 232.603 675.764 242.242 678.105 251.11 671.522
C 262.987 662.707 263.046 640.833 250.938 632.215
C 242.541 626.24 232.235 626.932 222.412 627.421 Z"
opacity="1" fill="rgb(6,45,64)" fill-rule="evenodd" />
<path d="
M 231.697 134.719
C 235.488 134.002 239.651 134.427 243.499 134.404
C 252.354 134.351 261.307 134.677 270.149 134.21
C 270.588 135.632 270.231 137.512 270.214 138.996
C 270.178 142.33 270.146 145.663 270.121 148.997
C 270.111 150.338 270.536 152.745 269.791 153.905
C 257.187 153.876 244.58 153.775 231.976 153.879
C 231.272 153.262 231.773 150.002 231.763 149.002
C 231.719 144.241 231.728 139.478 231.697 134.719 Z"
opacity="1" fill="rgb(134,141,160)" fill-rule="evenodd" />
<path d="
M 231.915 161.321
C 240.607 161.385 249.309 161.258 258.004 161.253
C 261.995 161.251 266.116 160.967 270.092 161.301
C 270.186 167.766 269.673 174.328 270.08 180.781
C 269.675 181.062 268.221 180.785 267.727 180.787
C 265.318 180.796 262.909 180.782 260.501 180.793
C 254.168 180.822 247.835 180.828 241.502 180.832
C 238.459 180.834 235.146 181.207 232.135 180.826
C 231.876 174.326 231.964 167.828 231.915 161.321 Z"
opacity="1" fill="rgb(9,46,64)" fill-rule="evenodd" />
<path d="
M 231.961 188.403
C 232.036 188.314 232.112 188.225 232.187 188.136
C 240.786 188.138 249.4 188.021 258.005 188.034
C 261.798 188.039 266.376 187.377 270.07 188.23
C 269.795 191.758 270.081 195.45 270.098 198.999
C 270.111 201.663 269.821 204.569 270.154 207.205
C 260.92 206.432 251.275 207.243 241.999 207.236
C 239.501 207.234 237.002 207.246 234.504 207.215
C 233.854 207.207 232.459 207.518 231.926 207.183
C 231.485 201.021 231.747 194.575 231.961 188.403 Z"
opacity="1" fill="rgb(6,44,62)" fill-rule="evenodd" />
<path d="
M 231.841 214.443
C 241.225 214.438 250.615 214.405 260.002 214.434
C 262.527 214.442 265.13 214.24 267.641 214.501
C 268.412 214.582 269.349 214.369 269.957 214.876
C 269.657 218.184 270.409 221.549 270.145 224.842
C 269.484 225.949 267.772 226.729 266.79 227.581
C 264.724 229.372 263.2 231.424 261.393 233.425
C 259.213 234.269 255.366 233.456 253.005 233.463
C 246.006 233.482 238.879 233.026 231.897 233.482
C 231.189 232.424 231.743 229.795 231.738 228.504
C 231.721 223.976 231.12 218.909 231.841 214.443 Z"
opacity="1" fill="rgb(5,46,65)" fill-rule="evenodd" />
<path d="
M 231.731 240.795
C 237.116 240.998 242.601 240.776 247.996 240.705
C 250.133 240.677 253.472 240.125 255.461 240.887
C 251.749 247.268 248.136 253.098 245.616 260.119
C 244.664 260.614 242.587 260.245 241.499 260.242
C 238.241 260.236 234.968 260.126 231.714 260.167
C 231.47 256.329 231.599 252.449 231.573 248.604
C 231.556 246.034 231.313 243.34 231.731 240.795 Z"
opacity="1" fill="rgb(100,107,128)" fill-rule="evenodd" />
<path d="
M 231.8 267.84
C 232.98 267.174 234.558 267.424 235.891 267.434
C 238.345 267.451 240.941 267.221 243.374 267.475
C 241.906 273.586 240.255 280.03 240.342 286.369
C 237.569 286.21 234.701 286.275 231.929 286.447
C 231.249 285.504 231.787 282.71 231.78 281.504
C 231.754 276.954 231.677 272.386 231.8 267.84 Z"
opacity="1" fill="rgb(9,51,67)" fill-rule="evenodd" />
<path d="
M 231.908 295.109
C 232.029 294.466 231.995 294.846 231.913 293.963
C 233.91 293.709 235.989 293.896 237.999 293.907
C 238.666 293.91 239.745 293.687 240.315 294.008
C 241.128 300.617 242.027 306.848 243.479 313.35
C 239.634 313.342 235.764 313.303 231.922 313.436
C 231.225 313.007 231.761 309.861 231.763 309.001
C 231.773 304.423 231.45 299.664 231.908 295.109 Z"
opacity="1" fill="rgb(90,101,119)" fill-rule="evenodd" />
<path d="
M 231.663 320.706
C 236.315 320.358 241.009 320.79 245.664 320.626
C 247.768 325.338 249.87 329.994 252.483 334.457
C 253.566 336.306 254.655 338.489 256.11 340.068
C 255.732 340.366 254.954 340.233 254.503 340.231
C 253.003 340.223 251.503 340.192 250.002 340.175
C 243.985 340.104 237.938 340.277 231.927 340.025
C 231.393 333.623 231.955 327.125 231.663 320.706 Z"
opacity="1" fill="rgb(8,44,61)" fill-rule="evenodd" />
<path d="
M 231.919 348.611
C 232.102 347.978 231.971 348.345 232.378 347.536
C 239.219 346.617 246.587 347.43 253.494 347.428
C 255.77 347.427 259.863 346.605 261.831 347.781
C 263.544 349.441 265.051 351.296 266.785 352.939
C 267.875 353.971 269.387 354.86 270.121 356.194
C 270.745 359.488 269.604 363.038 270.239 366.313
C 260.755 366.926 251.012 366.242 241.497 366.334
C 239.004 366.358 236.496 366.293 234.004 366.381
C 233.381 366.403 232.218 366.828 231.717 366.384
C 231.913 360.479 231.393 354.503 231.919 348.611 Z"
opacity="1" fill="rgb(123,131,149)" fill-rule="evenodd" />
<path d="
M 231.641 373.687
C 244.445 372.994 257.398 373.732 270.221 373.662
C 269.893 379.883 269.657 386.605 270.184 392.811
C 269.496 393.015 268.452 392.792 267.734 392.786
C 265.655 392.771 263.577 392.745 261.498 392.749
C 254.832 392.76 248.165 392.792 241.499 392.783
C 239.166 392.781 236.833 392.8 234.501 392.79
C 233.731 392.787 232.454 393.103 231.775 392.773
C 231.641 386.413 231.723 380.048 231.641 373.687 Z"
opacity="1" fill="rgb(7,45,62)" fill-rule="evenodd" />
<path d="
M 231.799 400.98
C 231.937 400.813 232.075 400.646 232.213 400.479
C 244.755 399.534 257.585 400.376 270.165 400.312
C 270.709 401.715 270.213 403.984 270.21 405.499
C 270.201 409.985 269.47 415.056 270.073 419.478
C 264.26 419.149 258.349 419.417 252.526 419.425
C 245.672 419.435 238.627 419.228 231.795 419.714
C 231.085 413.748 231.466 406.978 231.799 400.98 Z"
opacity="1" fill="rgb(128,135,153)" fill-rule="evenodd" />
<path d="
M 231.806 426.779
C 244.563 426.946 257.385 426.237 270.135 426.758
C 270.179 432.911 269.501 439.166 269.933 445.31
C 269.423 445.849 268.137 445.602 267.446 445.596
C 264.965 445.576 262.485 445.565 260.004 445.557
C 250.682 445.527 241.236 445.048 231.927 445.479
C 231.313 443.786 231.765 441.306 231.767 439.504
C 231.77 435.262 231.759 431.019 231.806 426.779 Z"
opacity="1" fill="rgb(5,44,62)" fill-rule="evenodd" />
<path d="
M 247.482 286.612
C 248.759 276.829 250.257 267.602 254.232 258.45
C 262.772 238.782 280.425 221.688 301.461 216.179
C 312.607 213.26 324.575 214.254 336.003 214.259
C 341.67 214.262 347.337 214.267 353.004 214.275
C 355.698 214.279 358.824 213.856 361.464 214.381
C 360.9 222.35 361.397 230.514 361.375 238.504
C 361.369 240.688 361.34 242.872 361.34 245.056
C 361.34 245.739 361.749 246.832 361.449 247.457
C 357.736 245.659 354.198 243.711 350.206 242.53
C 335.573 238.201 317.662 239.379 304.969 248.478
C 297.449 253.868 290.971 260.853 287.259 269.436
C 277.159 292.789 286.13 321.642 309.196 333.358
C 320.876 339.291 335.165 340.232 347.723 336.742
C 350.96 335.842 354.132 334.622 357.185 333.226
C 358.381 332.68 360.172 331.352 361.449 331.267
C 361.968 333.695 361.383 336.98 361.385 339.502
C 361.391 345.835 361.377 352.168 361.35 358.501
C 361.34 360.798 360.768 363.868 361.314 366.086
C 351.422 366.549 341.403 366.194 331.497 366.228
C 322.004 366.261 312.494 366.77 303.23 364.312
C 276.528 357.231 255.952 334.331 249.63 307.744
C 248.016 300.957 246.92 293.608 247.482 286.612 Z"
opacity="1" fill="rgb(8,45,63)" fill-rule="evenodd" />
<path d="
M 258.75 519.684
C 262.872 519.326 267.063 519.493 271.195 519.564
C 270.913 534.36 271.093 549.2 271.129 564.002
C 271.138 568.001 271.138 572 271.157 576
C 271.163 577.191 270.709 579.513 271.34 580.485
C 274.828 580.133 278.497 580.438 282.007 580.436
C 289.948 580.431 297.919 580.613 305.852 580.495
C 305.531 584.06 305.524 588.153 305.857 591.719
C 296.296 592.189 286.579 591.672 277.003 591.66
C 271.246 591.653 264.695 592.493 259.039 591.393
C 258.509 584.996 258.93 578.418 258.921 571.997
C 258.896 554.604 259.58 537.059 258.75 519.684 Z"
opacity="1" fill="rgb(6,45,63)" fill-rule="evenodd" />
<path d="
M 277.433 135.602
C 277.454 135.388 277.474 135.175 277.495 134.961
C 279.93 133.582 284.245 134.407 287.003 134.421
C 293.669 134.455 300.336 134.429 307.002 134.438
C 309.537 134.441 313.391 133.702 315.745 134.627
C 315.576 139.408 315.646 144.211 315.625 148.997
C 315.62 150.073 316.132 153.1 315.289 153.844
C 306.417 153.359 297.39 153.797 288.501 153.797
C 286 153.797 283.5 153.8 280.999 153.804
C 279.94 153.806 278.603 154.048 277.621 153.649
C 277.445 147.69 277.011 141.556 277.433 135.602 Z"
opacity="1" fill="rgb(5,44,62)" fill-rule="evenodd" />
<path d="
M 277.469 162.603
C 277.565 162.033 277.532 162.362 277.518 161.61
C 278.313 161.049 279.55 161.286 280.501 161.283
C 283.001 161.278 285.502 161.259 288.002 161.255
C 297.253 161.242 306.508 161.205 315.759 161.132
C 315.414 167.647 315.738 174.291 315.646 180.819
C 306.506 180.341 297.157 180.717 287.998 180.775
C 284.588 180.797 281.076 181.098 277.678 180.833
C 277.381 174.865 276.961 168.567 277.469 162.603 Z"
opacity="1" fill="rgb(133,140,158)" fill-rule="evenodd" />
<path d="
M 277.467 189.595
C 277.555 189.085 277.531 188.738 277.779 188.267
C 290.434 188.173 303.105 187.987 315.764 188.103
C 315.419 192.682 315.759 197.404 315.757 202.001
C 315.756 202.995 316.322 206.386 315.593 207
C 308.983 207.597 302.14 207.099 295.503 207.094
C 289.666 207.09 283.534 207.585 277.734 206.944
C 276.745 201.605 277.085 195 277.467 189.595 Z"
opacity="1" fill="rgb(6,44,62)" fill-rule="evenodd" />
<path d="
M 277.61 362.105
C 277.567 361.847 277.524 361.589 277.482 361.331
C 278.18 361.111 279.347 362.21 279.984 362.592
C 282.421 364.056 285.547 364.885 287.812 366.466
C 287.873 366.781 284.997 366.293 284.57 366.257
C 282.424 366.073 280.135 366.27 277.983 366.37
C 277.333 365.783 277.69 363.077 277.61 362.105 Z"
opacity="1" fill="rgb(67,81,98)" fill-rule="evenodd" />
<path d="
M 277.465 428.105
C 277.565 427.516 277.532 427.86 277.506 427.069
C 278.54 426.595 279.878 426.784 281.001 426.777
C 283.168 426.762 285.334 426.745 287.5 426.745
C 293.833 426.745 300.167 426.777 306.5 426.719
C 309.092 426.694 313.039 425.971 315.47 426.848
C 315.099 430.136 315.414 433.676 315.422 436.991
C 315.429 439.733 315.114 442.658 315.319 445.372
C 311.62 446.102 307.26 445.53 303.497 445.523
C 294.928 445.506 286.222 445.138 277.669 445.628
C 276.996 444.12 277.401 441.644 277.398 439.994
C 277.391 436.068 277.13 432.017 277.465 428.105 Z"
opacity="1" fill="rgb(134,142,160)" fill-rule="evenodd" />
<path d="
M 277.743 214.765
C 280.001 214.534 282.316 214.677 284.585 214.67
C 284.932 214.669 286.438 214.476 286.522 214.818
C 284.457 216.056 282.056 216.613 280.01 217.94
C 279.588 218.213 278.399 219.401 277.935 219.246
C 277.926 217.774 277.954 216.222 277.743 214.765 Z"
opacity="1" fill="rgb(45,73,92)" fill-rule="evenodd" />
<path d="
M 277.665 373.712
C 290.337 373.963 303.049 373.41 315.733 373.652
C 316.303 377.427 315.742 381.676 315.709 385.496
C 315.69 387.809 316.107 390.644 315.556 392.897
C 313.489 393.254 311.097 392.896 308.998 392.866
C 304.998 392.809 300.998 392.784 296.998 392.782
C 292.664 392.78 288.33 392.791 283.997 392.832
C 281.984 392.851 279.638 393.178 277.664 392.82
C 277.409 386.502 277.33 380.028 277.665 373.712 Z"
opacity="1" fill="rgb(138,145,164)" fill-rule="evenodd" />
<path d="
M 277.81 400.359
C 286.534 400.455 295.276 400.291 304.004 400.282
C 306.672 400.279 309.34 400.277 312.008 400.281
C 313.071 400.282 314.423 400.046 315.429 400.386
C 315.199 404.41 315.371 408.473 315.362 412.502
C 315.356 414.704 315.077 417.096 315.297 419.275
C 306.442 418.739 297.377 419.332 288.502 419.342
C 286.001 419.344 283.5 419.349 280.999 419.351
C 280.01 419.352 278.655 419.626 277.724 419.324
C 277.672 415.056 277.646 410.778 277.642 406.504
C 277.64 404.56 277.284 402.233 277.81 400.359 Z"
opacity="1" fill="rgb(5,45,63)" fill-rule="evenodd" />
<path d="
M 287.149 615.68
C 292.996 614.962 299.121 615.455 305.006 615.449
C 314.774 615.439 325.273 614.198 333.439 620.684
C 342.504 627.884 344.635 642.835 338.34 652.575
C 335.306 657.271 330.343 660.375 325.01 661.83
C 329.318 668.281 334.348 674.291 338.839 680.623
C 339.969 682.216 341.054 683.842 342.182 685.436
C 342.596 686.021 343.457 687.049 343.438 687.766
C 340.295 687.879 337.145 687.81 333.998 687.812
C 332.445 687.812 330.707 688.052 329.183 687.779
C 327.317 686.171 325.851 683.154 324.427 681.126
C 321.836 677.44 319.147 673.825 316.478 670.197
C 314.888 668.036 313.486 665.548 311.565 663.668
C 307.936 662.793 303.278 663.291 299.569 663.518
C 299.164 671.569 299.157 679.806 299.384 687.867
C 295.398 687.898 291.394 687.793 287.411 687.96
C 286.668 686.793 287.248 683.917 287.242 682.504
C 287.221 677.837 287.245 673.17 287.241 668.504
C 287.224 650.896 287.136 633.286 287.149 615.68 Z
M 299.478 627.591
C 299.061 630.312 299.323 633.25 299.328 636
C 299.339 641.337 299.392 646.672 299.43 652.007
C 303.781 652.263 308.181 652.24 312.545 652.25
C 315.836 652.258 319.29 652.377 322.4 651.114
C 330.622 647.776 332.891 634.298 324.969 629.237
C 320.848 626.604 316.067 626.777 311.356 626.809
C 307.453 626.836 303.537 626.713 299.643 626.972
C 299.588 627.178 299.533 627.384 299.478 627.591 Z"
opacity="1" fill="rgb(7,46,64)" fill-rule="evenodd" />
<path d="
M 304.969 286.095
C 305.947 281.311 307.39 276.978 310.223 272.943
C 318.363 261.351 333.835 257.369 346.55 263.479
C 351.389 265.804 355.019 269.597 358.229 273.806
C 361.348 271.839 364.2 268.732 366.986 266.3
C 368.035 265.384 370.136 264.248 370.742 263.003
C 370.213 262.06 369.458 261.182 369.137 260.134
C 368.699 258.704 368.893 256.976 368.889 255.496
C 368.882 252.495 368.898 249.494 368.899 246.493
C 368.905 235.844 368.797 225.187 368.94 214.541
C 371.935 213.901 375.441 214.309 378.502 214.307
C 384.503 214.303 390.504 214.269 396.504 214.268
C 399.07 214.267 401.638 214.25 404.204 214.288
C 405.148 214.301 406.464 214.085 407.341 214.455
C 406.587 247.77 407.252 281.179 407.264 314.505
C 407.268 326.17 407.287 337.836 407.278 349.501
C 407.276 353.168 407.275 356.834 407.263 360.501
C 407.257 362.332 406.985 364.393 407.253 366.197
C 398.145 365.427 388.641 366.151 379.498 366.183
C 376.996 366.191 374.495 366.205 371.994 366.211
C 371.133 366.214 369.635 366.555 368.871 366.207
C 368.837 355.805 368.881 345.4 368.857 334.997
C 368.849 331.744 368.84 328.492 368.835 325.239
C 368.832 323.6 368.584 321.68 368.958 320.074
C 369.177 319.134 370.102 318.558 370.25 317.632
C 369.51 316.356 368.064 315.292 366.987 314.296
C 364.96 312.419 362.972 310.419 360.823 308.684
C 359.979 308.003 358.687 306.441 357.61 306.313
C 356.01 308.887 353.434 311.14 351.069 313.002
C 348.32 315.165 344.879 316.932 341.464 317.73
C 336.438 318.904 331.267 319.211 326.238 317.812
C 312.612 314.023 303.05 300.246 304.969 286.095 Z"
opacity="1" fill="rgb(7,45,63)" fill-rule="evenodd" />
<path d="
M 318.508 520.605
C 318.598 519.96 318.492 520.322 318.967 519.57
C 330.306 519.57 341.665 519.427 353.011 519.374
C 356.344 519.359 359.677 519.372 363.01 519.357
C 364.47 519.35 366.465 518.997 367.852 519.445
C 367.865 523.234 367.351 527.39 367.793 531.136
C 363.389 531.289 358.919 530.965 354.506 530.955
C 346.566 530.937 338.618 531.111 330.687 531.11
C 330.878 535.472 330.718 539.875 330.708 544.242
C 330.705 545.803 330.225 548.583 330.971 549.955
C 338.075 549.462 345.381 549.891 352.506 549.9
C 355.759 549.904 360.074 549.183 363.188 550.15
C 362.967 553.659 362.806 557.695 363.165 561.188
C 355.695 560.679 347.99 561.232 340.499 561.252
C 337.809 561.259 333.484 560.482 331.031 561.615
C 330.884 565.742 330.911 569.875 330.912 574.007
C 330.913 576.168 330.64 578.581 331.147 580.691
C 334.679 580.316 338.447 580.699 342.004 580.7
C 350.553 580.702 359.128 580.941 367.674 580.772
C 368.02 583.314 367.674 586.135 367.671 588.706
C 367.67 589.442 368.004 591.144 367.542 591.754
C 351.314 591.525 335.005 591.455 318.781 591.704
C 318.44 589.564 318.72 587.174 318.719 585.005
C 318.716 580.84 318.694 576.674 318.658 572.509
C 318.511 555.265 319.43 537.822 318.508 520.605 Z"
opacity="1" fill="rgb(8,45,63)" fill-rule="evenodd" />
<path d="
M 322.898 373.789
C 331.871 373.029 341.204 373.407 350.211 373.41
C 352.807 373.411 355.403 373.387 357.999 373.408
C 359.144 373.418 360.547 373.239 361.623 373.658
C 361.913 379.8 362.211 386.786 361.349 392.864
C 348.651 393.786 335.678 391.502 323.002 392.85
C 322.346 391.699 322.894 388.865 322.892 387.495
C 322.885 382.927 322.924 378.356 322.898 373.789 Z"
opacity="1" fill="rgb(137,144,162)" fill-rule="evenodd" />
<path d="
M 322.868 400.93
C 323.677 400.242 324.94 400.391 325.977 400.378
C 328.321 400.349 330.665 400.352 333.009 400.341
C 342.406 400.297 351.81 400.123 361.207 400.276
C 361.642 404.759 361.244 409.496 361.224 414.002
C 361.217 415.594 360.862 417.716 361.205 419.239
C 356.815 418.672 351.935 419.26 347.5 419.268
C 339.351 419.282 331.17 419.066 323.026 419.315
C 322.421 418.811 322.874 415.826 322.868 414.999
C 322.835 410.322 322.673 405.603 322.868 400.93 Z"
opacity="1" fill="rgb(6,45,63)" fill-rule="evenodd" />
<path d="
M 322.901 426.803
C 335.796 426.574 348.754 426.327 361.649 426.359
C 362.261 427.737 361.681 430.455 361.68 431.996
C 361.679 436.454 361.731 440.915 361.671 445.371
C 348.824 446.392 335.795 444.743 322.924 445.5
C 322.221 439.435 322.786 432.905 322.901 426.803 Z"
opacity="1" fill="rgb(134,142,160)" fill-rule="evenodd" />
<path d="
M 323.143 134.675
C 328.093 134.281 333.049 134.689 338.006 134.504
C 345.744 134.214 353.659 134.135 361.395 134.479
C 361.894 137.232 361.615 140.27 361.47 143.054
C 361.283 146.642 361.432 150.273 361.365 153.865
C 351.785 153.458 342.092 153.796 332.5 153.772
C 329.437 153.765 326.207 154.098 323.167 153.842
C 323.257 147.46 323.019 141.06 323.143 134.675 Z"
opacity="1" fill="rgb(5,45,63)" fill-rule="evenodd" />
<path d="
M 323.174 161.242
C 332.446 161.181 341.726 161.136 351.001 161.107
C 353.499 161.099 355.997 161.083 358.496 161.073
C 359.465 161.069 360.652 160.845 361.493 161.36
C 361.729 167.754 360.673 174.439 361.32 180.785
C 358.473 181.191 355.37 180.832 352.496 180.839
C 346.33 180.855 340.164 180.834 333.998 180.833
C 331.497 180.832 328.998 180.834 326.497 180.841
C 325.574 180.844 324.045 181.163 323.215 180.807
C 323.129 174.292 323.292 167.757 323.174 161.242 Z"
opacity="1" fill="rgb(132,139,157)" fill-rule="evenodd" />
<path d="
M 323.122 188.183
C 329.892 187.815 336.724 188.026 343.505 188.026
C 349.385 188.026 355.346 187.763 361.215 188.106
C 361.971 189.309 361.394 192.061 361.394 193.503
C 361.393 197.909 360.961 202.562 361.359 206.937
C 358.383 207.47 354.929 206.936 351.899 206.972
C 342.451 207.083 332.772 206.279 323.352 207.018
C 322.707 205.524 323.182 203.134 323.17 201.503
C 323.137 197.063 323.145 192.622 323.122 188.183 Z"
opacity="1" fill="rgb(6,44,62)" fill-rule="evenodd" />
<path d="
M 356.413 615.915
C 357.042 615.211 358.866 615.456 359.801 615.445
C 362.882 615.409 365.962 615.43 369.044 615.43
C 381.247 615.431 393.499 615.627 405.697 615.287
C 405.986 616.424 405.763 617.826 405.764 619.001
C 405.766 621.636 405.79 624.271 405.81 626.905
C 397.209 626.903 388.605 626.911 380.004 626.916
C 377.503 626.917 375.003 626.908 372.503 626.904
C 371.368 626.902 369.774 626.68 368.716 627.098
C 368.147 633.254 368.996 639.55 368.672 645.716
C 371.111 646.186 374.014 645.756 376.504 645.757
C 382.171 645.758 387.838 645.744 393.504 645.771
C 395.505 645.781 397.507 645.772 399.508 645.792
C 400.033 645.798 401.001 645.594 401.271 646.059
C 401.386 649.752 401.389 653.494 401.276 657.187
C 390.444 657.565 379.566 656.71 368.728 657.18
C 368.747 663.634 369.042 670.233 368.697 676.671
C 369.561 677.103 371.025 676.815 371.999 676.821
C 374.333 676.836 376.667 676.843 379.002 676.845
C 387.85 676.856 396.816 677.232 405.652 676.785
C 406.061 677.631 405.78 679.055 405.772 679.993
C 405.749 682.633 405.772 685.287 405.837 687.925
C 395.563 687.836 385.279 687.949 375.004 687.959
C 369.003 687.965 362.913 687.663 356.924 687.969
C 355.975 687.319 356.441 684.588 356.438 683.495
C 356.425 679.162 356.439 674.829 356.447 670.496
C 356.477 652.312 356.046 634.093 356.413 615.915 Z"
opacity="1" fill="rgb(9,46,64)" fill-rule="evenodd" />
<path d="
M 368.934 134.979
C 369.015 134.853 369.095 134.726 369.175 134.6
C 375.254 134.165 381.409 134.392 387.502 134.401
C 394.128 134.411 400.792 134.213 407.409 134.491
C 407.043 140.801 408.372 147.58 407.378 153.823
C 398.316 153.341 389.084 153.907 380.004 153.888
C 377.503 153.883 375.002 153.868 372.501 153.879
C 371.427 153.883 370.112 154.115 369.098 153.758
C 368.547 147.686 368.505 141.064 368.934 134.979 Z"
opacity="1" fill="rgb(7,45,63)" fill-rule="evenodd" />
<path d="
M 368.899 161.313
C 377.931 161.206 386.969 161.249 396.003 161.271
C 398.671 161.277 401.339 161.279 404.007 161.301
C 405.049 161.309 406.43 161.096 407.4 161.482
C 407.158 165.626 407.359 169.852 407.361 174.006
C 407.361 176.018 406.942 178.615 407.427 180.552
C 407.1 180.909 405.7 180.644 405.255 180.642
C 402.837 180.633 400.419 180.625 398.001 180.633
C 388.518 180.666 378.717 179.945 369.27 180.686
C 368.573 179.323 369.091 176.651 369.077 175.089
C 369.038 170.496 368.873 165.904 368.899 161.313 Z"
opacity="1" fill="rgb(9,46,64)" fill-rule="evenodd" />
<path d="
M 368.85 188.296
C 371.967 187.647 375.393 188.024 378.561 188.023
C 384.401 188.022 390.244 187.956 396.084 187.938
C 398.557 187.93 401.029 187.915 403.501 187.923
C 404.71 187.927 406.181 187.674 407.322 188.119
C 407.201 192.231 407.316 196.376 407.285 200.495
C 407.27 202.569 406.844 205.149 407.221 207.168
C 400.897 207.663 394.343 207.063 387.997 207.026
C 381.671 206.989 375.188 207.544 368.885 207.164
C 368.37 200.997 368.704 194.484 368.85 188.296 Z"
opacity="1" fill="rgb(128,137,156)" fill-rule="evenodd" />
<path d="
M 368.799 373.753
C 373.65 372.915 378.972 373.54 383.89 373.495
C 391.6 373.425 399.577 372.856 407.25 373.64
C 407.628 375.48 407.333 377.615 407.331 379.498
C 407.327 383.895 407.116 388.376 407.35 392.763
C 394.722 392.145 381.777 392.503 369.134 392.754
C 368.688 390.589 368.898 388.202 368.868 385.999
C 368.811 381.92 368.722 377.832 368.799 373.753 Z"
opacity="1" fill="rgb(6,45,62)" fill-rule="evenodd" />
<path d="
M 368.796 400.36
C 381.741 400.239 394.743 399.893 407.688 400.168
C 407.816 404.766 407.684 409.393 407.642 413.995
C 407.629 415.406 408.175 418.152 407.563 419.396
C 403.793 419.774 399.788 419.357 395.997 419.332
C 387.009 419.273 377.984 419.05 369 419.342
C 368.329 418.844 368.779 415.424 368.766 414.5
C 368.704 409.879 368.25 404.949 368.796 400.36 Z"
opacity="1" fill="rgb(137,145,163)" fill-rule="evenodd" />
<path d="
M 368.884 426.809
C 376.408 426.491 383.977 426.655 391.509 426.607
C 396.707 426.574 402.093 426.192 407.268 426.713
C 407.677 428.141 407.328 430.007 407.325 431.497
C 407.313 435.961 406.688 440.999 407.343 445.4
C 398.638 446.179 389.648 445.449 380.909 445.526
C 378.361 445.549 375.811 445.457 373.262 445.458
C 371.98 445.459 370.223 445.749 369.031 445.271
C 368.375 439.277 368.668 432.837 368.884 426.809 Z"
opacity="1" fill="rgb(5,45,63)" fill-rule="evenodd" />
<path d="
M 378.477 553.615
C 378.919 549.46 379.248 545.442 380.877 541.524
C 386.48 528.045 400.161 518.846 414.747 518.685
C 423.436 518.589 431.6 521.165 438.398 526.634
C 439.955 527.887 441.376 529.294 442.76 530.731
C 443.206 531.194 443.908 531.73 443.886 532.409
C 443.171 533.698 441.801 534.762 440.788 535.823
C 439.29 537.393 437.791 539.352 435.969 540.551
C 434.191 539.574 432.969 537.424 431.338 536.171
C 427.566 533.274 423.234 531.363 418.515 530.728
C 415.573 530.332 412.46 530.531 409.574 531.211
C 388.636 536.146 384.04 566.253 402.509 577.252
C 405.608 579.098 408.9 580.327 412.482 580.801
C 416.4 581.319 420.452 580.715 424.149 579.375
C 429.169 577.556 432.937 574.014 436.497 570.179
C 439.541 571.916 442.239 575.151 445.027 577.342
C 443.102 580.575 439.856 583.434 436.841 585.623
C 424.613 594.501 406.608 594.878 394.15 586.109
C 383.723 578.769 377.82 566.362 378.477 553.615 Z"
opacity="1" fill="rgb(6,45,63)" fill-rule="evenodd" />
<path d="
M 414.828 134.957
C 415.557 134.322 416.543 134.432 417.483 134.405
C 419.486 134.346 421.498 134.374 423.502 134.374
C 430.666 134.376 437.832 134.403 444.997 134.337
C 446.997 134.319 448.998 134.341 450.999 134.316
C 451.711 134.307 452.773 134.071 453.383 134.464
C 453.272 138.804 453.315 143.153 453.284 147.495
C 453.269 149.612 452.952 151.995 453.228 154.088
C 444.007 153.653 434.73 153.871 425.498 153.857
C 422.998 153.854 420.499 153.852 418 153.859
C 417.066 153.862 415.895 154.116 415.094 153.612
C 414.831 147.436 414.617 141.135 414.828 134.957 Z"
opacity="1" fill="rgb(132,140,159)" fill-rule="evenodd" />
<path d="
M 414.909 215.603
C 415.003 214.977 414.969 215.345 414.957 214.494
C 417.674 213.967 420.74 214.282 423.504 214.275
C 428.837 214.261 434.17 214.269 439.503 214.275
C 449.212 214.287 459.399 213.402 469.017 214.913
C 479.413 216.546 489.416 221.372 497.93 227.412
C 536.592 254.842 538.922 316.53 503.688 347.577
C 493.167 356.848 480.773 363.24 466.859 365.492
C 460.663 366.495 454.252 366.231 447.998 366.233
C 437.106 366.236 426.187 365.944 415.298 366.143
C 414.94 365.665 415.054 364.843 415.047 364.251
C 415.026 362.448 415.053 360.644 415.05 358.841
C 415.041 352.242 414.458 345.304 415.186 338.744
C 422.281 338.785 429.403 338.587 436.507 338.585
C 447.896 338.583 458.44 338.623 468.737 332.998
C 498.071 316.974 502.18 272.76 475.962 251.854
C 469.099 246.381 461.102 242.687 452.387 241.407
C 446.007 240.471 439.431 240.794 433 240.794
C 429 240.794 425 240.796 421 240.812
C 419.238 240.818 416.94 241.231 415.244 240.781
C 414.676 232.565 414.301 223.824 414.909 215.603 Z"
opacity="1" fill="rgb(7,45,63)" fill-rule="evenodd" />
<path d="
M 414.95 373.861
C 416.872 372.801 420.912 373.548 423.092 373.543
C 430.064 373.527 437.035 373.506 444.007 373.518
C 446.172 373.521 448.338 373.531 450.503 373.54
C 451.28 373.543 452.397 373.352 453.004 373.846
C 452.498 378.28 452.966 383.041 452.958 387.511
C 452.956 388.698 453.521 391.801 452.89 392.729
C 440.328 392.966 427.692 392.903 415.13 392.643
C 414.542 390.799 414.887 388.422 414.881 386.496
C 414.87 382.29 414.78 378.063 414.95 373.861 Z"
opacity="1" fill="rgb(6,45,63)" fill-rule="evenodd" />
<path d="
M 414.904 401.615
C 415.118 400.969 414.971 401.35 415.402 400.495
C 418.043 400.014 420.824 400.265 423.5 400.271
C 428.001 400.281 432.501 400.274 437.002 400.26
C 440.502 400.249 444.003 400.236 447.503 400.232
C 449.283 400.23 451.322 399.958 453.063 400.288
C 453.525 406.497 453.067 413.09 452.842 419.314
C 444.831 419.144 436.789 419.339 428.776 419.379
C 424.301 419.401 419.186 418.919 414.789 419.648
C 414.426 417.397 414.743 414.787 414.742 412.497
C 414.741 408.904 414.514 405.191 414.904 401.615 Z"
opacity="1" fill="rgb(134,140,158)" fill-rule="evenodd" />
<path d="
M 414.959 426.813
C 419.575 426.004 424.817 426.718 429.504 426.718
C 437.295 426.718 445.288 426.186 453.056 426.78
C 452.249 432.889 453.44 439.244 452.862 445.385
C 447.844 444.93 442.55 445.411 437.506 445.425
C 430.18 445.446 422.793 445.143 415.474 445.441
C 414.607 444.534 414.933 441.751 414.928 440.495
C 414.91 435.938 414.804 431.365 414.959 426.813 Z"
opacity="1" fill="rgb(4,44,63)" fill-rule="evenodd" />
<path d="
M 414.865 687.668
C 419.902 674.622 425.445 661.766 430.474 648.712
C 434.723 637.684 438.682 626.287 443.613 615.552
C 444.444 615.186 445.601 615.42 446.508 615.426
C 448.607 615.439 450.705 615.438 452.804 615.442
C 453.659 615.443 455.4 615.134 456.062 615.668
C 463.102 633.135 470.138 650.613 476.958 668.171
C 479.49 674.691 483.202 681.172 485.017 687.93
C 480.573 687.892 476.007 688.279 471.578 687.951
C 469.855 682.824 468.137 676.857 465.349 672.217
C 459.582 671.959 453.773 672.267 447.998 672.249
C 443.293 672.234 438.524 671.822 433.828 672.163
C 431.807 676.217 430.65 680.836 428.914 685.047
C 428.522 685.997 428.403 687.099 427.879 687.986
C 423.839 688.952 418.951 687.841 414.788 688.086
C 414.814 687.946 414.839 687.807 414.865 687.668 Z
M 438.458 660.066
C 438.242 660.706 438.357 660.366 438.115 661.087
C 439.248 661.982 442.997 661.265 444.505 661.266
C 448.338 661.267 452.173 661.257 456.006 661.273
C 457.686 661.281 459.76 660.955 461.379 661.318
C 459.092 653.765 455.616 646.189 452.607 638.885
C 451.883 637.127 451.437 635.168 450.532 633.497
C 450.339 633.142 449.724 631.966 449.664 631.955
C 449.333 631.894 449.529 632.616 449.441 632.941
C 449.335 633.33 449.123 633.692 448.952 634.053
C 448.256 635.516 447.67 637.044 447.027 638.532
C 443.967 645.614 441.711 653.067 438.458 660.066 Z"
opacity="1" fill="rgb(7,45,63)" fill-rule="evenodd" />
<path d="
M 415.248 161.24
C 427.803 161.946 440.622 161.206 453.205 161.219
C 452.702 167.631 452.963 174.366 453.075 180.802
C 440.515 180.003 427.763 181.14 415.18 180.83
C 415.054 176.558 415.066 172.274 415.063 167.997
C 415.061 165.79 414.757 163.397 415.248 161.24 Z"
opacity="1" fill="rgb(8,45,63)" fill-rule="evenodd" />
<path d="
M 415.107 188.163
C 423.393 187.879 431.712 188.032 440.006 188.044
C 444.23 188.05 448.999 187.46 453.156 188.161
C 453.067 192.596 453.166 197.057 453.18 201.501
C 453.185 202.986 452.679 205.835 453.238 207.161
C 452.227 206.898 450.787 207.142 449.725 207.129
C 447.317 207.099 444.909 207.081 442.5 207.079
C 433.523 207.07 424.221 207.71 415.297 206.962
C 414.887 204.733 415.111 202.27 415.099 200.004
C 415.077 196.058 415.031 192.108 415.107 188.163 Z"
opacity="1" fill="rgb(5,44,62)" fill-rule="evenodd" />
<path d="
M 427.478 262.587
C 427.562 262.131 427.604 261.689 427.707 261.234
C 438.078 261.593 448.642 259.511 457.914 265.385
C 475.098 276.272 476.151 302.757 458.979 314.303
C 449.772 320.494 438.16 319.369 427.595 318.919
C 427.187 316.175 427.446 313.268 427.448 310.493
C 427.451 305.326 427.44 300.16 427.445 294.993
C 427.451 287.993 427.461 280.994 427.444 273.994
C 427.435 270.223 427.174 266.346 427.478 262.587 Z"
opacity="1" fill="rgb(7,45,62)" fill-rule="evenodd" />
<path d="
M 450.771 519.735
C 453.481 519.324 456.277 519.573 459.01 519.501
C 464.175 519.366 469.341 519.436 474.509 519.43
C 485.244 519.418 496.245 518.694 506.951 519.399
C 507.308 522.065 507.065 524.79 507.09 527.477
C 507.1 528.47 507.427 530.086 506.791 530.937
C 502.555 530.704 498.248 530.897 494.003 530.887
C 491.1 530.879 488.024 530.573 485.159 531.082
C 484.679 535.553 484.92 540.139 484.921 544.637
C 484.923 552.429 484.94 560.221 484.948 568.013
C 484.954 573.346 484.947 578.68 484.947 584.013
C 484.947 586.405 484.581 589.179 484.97 591.528
C 484.399 591.953 482.724 591.65 482.001 591.655
C 479.143 591.675 475.809 592.065 473.027 591.371
C 472.478 580.624 472.854 569.767 472.822 559.003
C 472.795 549.725 472.285 540.255 472.758 531.002
C 467.511 530.848 462.254 530.924 457.004 530.924
C 455.455 530.924 452.341 531.479 451.071 530.676
C 450.602 527.09 450.901 523.348 450.771 519.735 Z"
opacity="1" fill="rgb(7,46,64)" fill-rule="evenodd" />
<path d="
M 460.484 135.593
C 460.588 134.978 460.475 135.33 460.987 134.602
C 470.408 133.872 480.055 134.38 489.503 134.404
C 491.834 134.41 494.165 134.421 496.496 134.412
C 497.044 134.41 498.428 134.167 498.785 134.539
C 498.853 138.85 498.706 143.186 498.69 147.501
C 498.682 149.477 499.11 152.049 498.589 153.955
C 486.03 153.042 473.166 153.891 460.577 153.754
C 460.251 147.861 459.935 141.484 460.484 135.593 Z"
opacity="1" fill="rgb(6,44,62)" fill-rule="evenodd" />
<path d="
M 460.473 161.31
C 473.186 161.596 485.945 161.202 498.664 161.256
C 498.557 165.998 498.623 170.75 498.598 175.495
C 498.592 176.796 499.078 179.572 498.39 180.675
C 490.23 181.346 481.696 180.833 473.498 180.87
C 470.665 180.882 467.831 180.882 464.998 180.885
C 463.652 180.886 461.942 181.156 460.645 180.834
C 460.2 174.358 460.433 167.798 460.473 161.31 Z"
opacity="1" fill="rgb(113,123,144)" fill-rule="evenodd" />
<path d="
M 460.308 373.759
C 465.66 372.837 471.576 373.431 476.999 373.39
C 484.266 373.335 491.89 372.702 499.122 373.348
C 499.573 374.846 499.118 376.893 499.099 378.46
C 499.044 383.093 498.218 388.275 498.813 392.847
C 495.605 393.619 491.301 392.778 487.998 392.755
C 478.936 392.693 469.564 392.05 460.534 392.827
C 459.845 391.743 460.351 388.828 460.33 387.498
C 460.26 382.919 460.284 378.338 460.308 373.759 Z"
opacity="1" fill="rgb(140,146,165)" fill-rule="evenodd" />
<path d="
M 460.477 401.592
C 460.594 401.01 460.542 401.353 460.592 400.558
C 462.837 399.527 467.035 400.261 469.505 400.255
C 476.338 400.239 483.171 400.218 490.005 400.225
C 492.17 400.227 494.336 400.28 496.501 400.26
C 497.152 400.254 498.362 400.026 498.862 400.452
C 498.729 404.634 498.773 408.819 498.752 413.003
C 498.742 415.017 498.429 417.313 498.698 419.293
C 494.834 419.885 490.414 419.293 486.501 419.294
C 477.875 419.297 469.246 419.281 460.623 419.263
C 460.422 413.441 460 407.405 460.477 401.592 Z"
opacity="1" fill="rgb(6,45,62)" fill-rule="evenodd" />
<path d="
M 460.469 427.613
C 460.486 427.471 460.503 427.328 460.52 427.186
C 461.279 426.512 462.556 426.722 463.553 426.707
C 465.868 426.672 468.187 426.695 470.503 426.691
C 479.773 426.676 489.416 425.746 498.648 426.555
C 499.225 428.194 498.834 430.273 498.819 431.994
C 498.783 436.353 498.305 441.006 498.719 445.337
C 494.822 445.925 490.436 445.351 486.495 445.359
C 477.995 445.377 469.493 445.361 460.995 445.385
C 460.159 444.771 460.437 442.056 460.422 440.993
C 460.363 436.6 460.015 431.983 460.469 427.613 Z"
opacity="1" fill="rgb(134,143,161)" fill-rule="evenodd" />
<path d="
M 460.67 188.192
C 469.277 188.289 477.899 188.107 486.51 188.111
C 490.458 188.113 494.675 187.731 498.59 188.204
C 498.6 194.453 498.614 200.701 498.408 206.95
C 492.461 206.668 486.456 207.125 480.503 207.147
C 473.953 207.171 467.28 206.794 460.745 207.184
C 460.119 205.663 460.578 203.156 460.568 201.494
C 460.541 197.082 460.329 192.585 460.67 188.192 Z"
opacity="1" fill="rgb(6,45,63)" fill-rule="evenodd" />
<path d="
M 487.881 365.999
C 491.603 364.347 495.354 363.038 498.723 360.666
C 498.84 362.225 498.202 364.661 498.798 366.086
C 495.395 366.278 491.237 366.553 487.881 365.999 Z"
opacity="1" fill="rgb(69,92,109)" fill-rule="evenodd" />
<path d="
M 489.875 214.417
C 491.925 214.221 493.988 214.46 496.044 214.416
C 496.647 214.403 497.836 214.178 498.301 214.533
C 498.233 216.01 498.423 217.495 498.376 218.966
C 496.562 217.454 494.011 216.626 491.912 215.585
C 491.212 215.238 489.969 215.298 489.875 214.417 Z"
opacity="0.996" fill="rgb(58,82,93)" fill-rule="evenodd" />
<path d="
M 495.396 616.064
C 495.406 615.837 495.415 615.61 495.424 615.384
C 498.75 615.255 503.198 614.6 506.424 615.448
C 507.938 619.202 510.767 622.822 512.853 626.297
C 518.847 636.282 525.563 646.073 531.015 656.35
C 533.528 653.102 535.439 648.95 537.464 645.367
C 540.95 639.199 544.775 633.222 548.43 627.154
C 550.688 623.407 552.796 619.277 555.522 615.85
C 556.354 615.429 557.571 615.658 558.498 615.626
C 561.101 615.536 563.711 615.661 566.312 615.569
C 565.995 618.983 566.271 622.569 566.268 626.002
C 566.262 632.669 566.249 639.335 566.23 646.001
C 566.189 659.886 565.465 674.013 566.245 687.872
C 562.423 688.505 558.282 687.729 554.412 687.98
C 553.777 683.986 554.261 679.549 554.252 675.505
C 554.225 664.204 555.063 652.518 554.089 641.264
C 551.822 642.88 550.22 647.192 548.759 649.563
C 544.76 656.052 540.917 662.639 536.954 669.151
C 535.35 671.786 534.033 675.464 531.642 677.467
C 530.969 677.846 530.162 677.335 529.691 676.81
C 528.36 675.33 527.468 673.336 526.466 671.626
C 522.185 664.313 517.776 656.984 513.239 649.827
C 511.882 647.686 510.63 645.449 509.213 643.35
C 508.787 642.72 508.075 640.89 507.483 641.745
C 507.576 652.822 507.398 663.926 507.412 675.01
C 507.418 679.278 507.123 683.66 507.365 687.912
C 503.442 687.813 499.503 688.076 495.58 687.902
C 494.8 677.91 495.542 667.534 495.544 657.489
C 495.548 643.694 495.01 629.853 495.396 616.064 Z"
opacity="1" fill="rgb(6,45,63)" fill-rule="evenodd" />
<path d="
M 505.961 218.118
C 506.093 217.035 506.075 215.933 506.082 214.843
C 509.149 213.456 514.174 214.385 517.502 214.362
C 523.502 214.321 529.503 214.287 535.502 214.332
C 538.412 214.354 541.546 214.068 544.426 214.495
C 544.344 218.827 544.418 223.171 544.403 227.507
C 544.397 229.348 543.988 231.757 544.428 233.529
C 544.116 233.866 542.882 233.622 542.465 233.62
C 540.877 233.612 539.288 233.583 537.7 233.567
C 532.396 233.512 527.095 233.472 521.79 233.422
C 519.965 233.404 516.745 234.029 515.134 233.211
C 513.642 231.668 512.371 229.95 510.75 228.526
C 509.236 227.195 507.156 226.096 505.965 224.459
C 505.563 222.492 505.815 220.12 505.961 218.118 Z"
opacity="1" fill="rgb(6,45,64)" fill-rule="evenodd" />
<path d="
M 506.044 427.611
C 506.157 427.105 506.102 427.43 506.132 426.626
C 514.584 426.519 523.046 426.723 531.502 426.737
C 535.572 426.744 540.495 425.997 544.465 426.88
C 543.895 432.8 544.103 439.364 544.358 445.311
C 536.408 445.241 528.449 445.355 520.497 445.377
C 515.818 445.39 511.037 445.142 506.371 445.462
C 505.608 444.189 506.004 441.945 505.999 440.495
C 505.981 436.201 506.034 431.908 506.044 427.611 Z"
opacity="1" fill="rgb(129,137,155)" fill-rule="evenodd" />
<path d="
M 506.136 134.641
C 509.495 133.995 513.095 134.379 516.502 134.4
C 522.588 134.436 528.675 134.447 534.762 134.422
C 537.182 134.412 539.68 134.313 542.089 134.504
C 542.838 134.563 543.918 134.355 544.431 134.925
C 543.933 141.056 544.098 147.724 544.372 153.874
C 539.832 153.466 535.064 153.868 530.503 153.87
C 522.491 153.875 514.466 153.734 506.457 153.92
C 505.753 153.512 506.222 149.914 506.214 149.003
C 506.17 144.216 506.138 139.427 506.136 134.641 Z"
opacity="1" fill="rgb(5,45,63)" fill-rule="evenodd" />
<path d="
M 506.206 161.248
C 515.1 161.56 524.094 161.116 533.001 161.083
C 535.497 161.074 537.994 161.081 540.491 161.067
C 541.801 161.06 543.32 160.84 544.579 161.221
C 544.58 165.852 544.439 170.485 544.414 175.122
C 544.404 176.921 544.038 179.059 544.307 180.81
C 539.117 181.252 533.708 180.82 528.499 180.79
C 521.086 180.746 513.643 180.965 506.235 180.775
C 506.219 174.343 505.545 167.649 506.206 161.248 Z"
opacity="1" fill="rgb(129,137,156)" fill-rule="evenodd" />
<path d="
M 506.138 188.188
C 514.911 187.865 523.725 188.012 532.507 188.016
C 535.172 188.017 537.836 188.035 540.5 188.051
C 541.789 188.059 543.326 187.824 544.544 188.263
C 544.308 193.005 544.708 197.806 544.491 202.558
C 544.435 203.779 544.983 206.203 544.383 207.222
C 540.963 207.49 537.43 207.23 533.999 207.225
C 524.779 207.211 515.528 206.911 506.312 207.108
C 505.611 206.189 506.154 203.23 506.143 202.006
C 506.104 197.403 506.03 192.79 506.138 188.188 Z"
opacity="1" fill="rgb(7,44,62)" fill-rule="evenodd" />
<path d="
M 506.3 355.948
C 508.056 354.197 509.979 352.612 511.729 350.859
C 512.858 349.728 513.797 348.358 515.044 347.358
C 519.025 346.767 523.475 347.258 527.505 347.266
C 533.107 347.277 538.931 346.853 544.506 347.405
C 544.373 352.095 544.636 356.815 544.482 361.508
C 544.434 363.004 544.839 364.884 544.406 366.316
C 531.864 366.626 519.101 366.612 506.561 366.186
C 506.159 363.007 505.896 359.123 506.3 355.948 Z"
opacity="1" fill="rgb(7,44,62)" fill-rule="evenodd" />
<path d="
M 506.308 373.786
C 509.42 373.121 512.838 373.522 516.004 373.527
C 521.837 373.536 527.67 373.541 533.503 373.562
C 536.004 373.571 538.504 373.595 541.004 373.61
C 542.102 373.617 543.495 373.415 544.518 373.811
C 543.908 378.209 544.48 383.058 544.446 387.506
C 544.435 388.968 544.906 391.418 544.378 392.743
C 531.813 393.264 518.942 391.635 506.424 392.967
C 505.947 391.204 506.303 388.841 506.287 386.997
C 506.248 382.594 506.364 378.188 506.308 373.786 Z"
opacity="1" fill="rgb(129,137,156)" fill-rule="evenodd" />
<path d="
M 506.259 400.273
C 515.5 400.057 524.764 400.101 534.01 400.119
C 536.508 400.124 539.007 400.144 541.505 400.156
C 542.382 400.161 543.682 399.927 544.446 400.364
C 543.823 406.537 544.365 413.018 544.33 419.224
C 535.041 418.442 525.329 419.236 515.999 419.242
C 512.897 419.245 509.306 419.772 506.26 419.292
C 506.55 413.024 506.437 406.546 506.259 400.273 Z"
opacity="1" fill="rgb(5,45,63)" fill-rule="evenodd" />
<path d="
M 512.948 550.6
C 513.45 546.348 514.812 541.934 516.85 538.173
C 528.601 516.489 558.882 512.325 576.42 529.537
C 579.224 532.288 581.693 535.527 583.427 539.059
C 586.885 546.103 587.555 553.807 586.632 561.504
C 586.243 564.745 585.236 567.991 583.893 570.956
C 574.863 590.884 549.582 598.41 530.705 587.735
C 517.603 580.325 511.213 565.268 512.948 550.6 Z
M 524.957 553.623
C 524.326 561.655 527.468 569.96 533.69 575.197
C 545.251 584.929 564.479 582.007 571.592 568.318
C 573.189 565.245 574.151 561.851 574.435 558.403
C 574.769 554.349 574.429 550.314 572.935 546.508
C 568.122 534.251 554.08 527.582 541.569 531.939
C 538.355 533.059 535.487 534.957 532.94 537.184
C 530.682 539.158 528.922 541.657 527.591 544.336
C 526.142 547.25 525.212 550.371 524.957 553.623 Z"
opacity="1" fill="rgb(6,45,63)" fill-rule="evenodd" />
<path d="
M 521.47 339.056
C 525.285 333.161 528.051 327.051 530.964 320.692
C 535.221 320.038 540.003 320.485 544.3 320.642
C 545.112 325.123 544.422 330.45 544.352 335.004
C 544.329 336.471 543.973 338.405 544.319 339.807
C 538.908 339.549 533.418 339.805 527.999 339.791
C 525.751 339.785 523.354 340.038 521.134 339.666
C 521.246 339.462 521.358 339.259 521.47 339.056 Z"
opacity="1" fill="rgb(92,101,123)" fill-rule="evenodd" />
<path d="
M 521.505 241.2
C 527.076 240.503 532.893 240.781 538.504 240.804
C 539.956 240.81 541.41 240.781 542.862 240.803
C 543.264 240.809 544.054 240.711 544.372 240.988
C 544.18 245.312 544.332 249.669 544.311 253.998
C 544.301 255.869 543.824 258.435 544.301 260.227
C 539.961 260.292 535.611 260.229 531.275 260.115
C 528.742 253.435 525.411 247.171 521.505 241.2 Z"
opacity="1" fill="rgb(93,101,121)" fill-rule="evenodd" />
<path d="
M 533.234 267.855
C 536.437 266.781 540.916 267.336 544.271 267.528
C 544.658 269.078 544.406 270.908 544.404 272.505
C 544.399 276.957 543.721 282 544.375 286.384
C 541.61 286.271 538.838 286.389 536.072 286.27
C 535.07 280.073 535.171 273.919 533.234 267.855 Z"
opacity="1" fill="rgb(7,47,63)" fill-rule="evenodd" />
<path d="
M 533.431 312.059
C 535.125 306.36 535.702 300.056 536.023 294.14
C 537.562 293.267 540.498 293.86 542.282 293.812
C 542.723 293.799 544.087 293.591 544.372 293.956
C 544.19 298.119 544.376 302.334 544.377 306.503
C 544.378 308.65 543.996 311.19 544.35 313.289
C 540.608 313.347 536.846 312.991 533.108 313.142
C 533.391 312.348 533.295 312.712 533.431 312.059 Z"
opacity="1" fill="rgb(87,98,117)" fill-rule="evenodd" />
<path d="
M 551.965 135.606
C 551.972 135.398 551.978 135.19 551.985 134.982
C 555.057 133.648 560.046 134.472 563.403 134.431
C 572.404 134.321 581.427 134.379 590.424 134.502
C 590.269 140.846 589.863 147.591 590.38 153.914
C 583.606 153.663 576.783 153.894 570.003 153.857
C 564.071 153.824 558.058 153.488 552.133 153.765
C 551.623 151.47 551.936 148.84 551.931 146.497
C 551.924 142.902 551.649 139.187 551.965 135.606 Z"
opacity="1" fill="rgb(7,45,62)" fill-rule="evenodd" />
<path d="
M 551.901 161.316
C 560.088 161.384 568.31 161.305 576.499 161.152
C 580.951 161.07 585.827 160.49 590.234 161.143
C 590.125 165.423 590.173 169.715 590.156 173.997
C 590.147 176.179 589.9 178.573 590.164 180.73
C 586.536 180.152 582.19 180.783 578.498 180.792
C 569.722 180.813 560.909 181.021 552.138 180.81
C 551.791 174.319 551.88 167.815 551.901 161.316 Z"
opacity="1" fill="rgb(128,136,155)" fill-rule="evenodd" />
<path d="
M 551.878 215.036
C 551.985 214.871 552.092 214.706 552.199 214.541
C 558.038 213.837 564.125 214.373 570.001 214.369
C 576.756 214.364 583.754 213.848 590.483 214.406
C 590.287 218.593 590.421 222.815 590.404 227.007
C 590.396 229.028 590.007 231.48 590.391 233.445
C 577.616 233.913 564.749 232.776 551.985 233.432
C 551.587 231.23 551.847 228.739 551.837 226.501
C 551.818 222.693 551.656 218.838 551.878 215.036 Z"
opacity="1" fill="rgb(6,45,64)" fill-rule="evenodd" />
<path d="
M 551.942 241.554
C 551.96 241.375 551.978 241.196 551.996 241.018
C 556.898 240.412 562.064 240.815 567 240.798
C 574.712 240.771 582.474 240.518 590.18 240.758
C 590.828 242.048 590.278 244.547 590.265 245.996
C 590.226 250.531 589.49 255.836 590.22 260.296
C 585.877 260.652 581.36 260.272 576.999 260.262
C 568.688 260.241 560.373 260.307 552.063 260.233
C 551.394 254.254 551.479 247.552 551.942 241.554 Z"
opacity="1" fill="rgb(134,142,160)" fill-rule="evenodd" />
<path d="
M 551.905 267.878
C 552.926 267.354 554.324 267.465 555.459 267.45
C 557.974 267.416 560.488 267.412 563.003 267.403
C 572.148 267.37 581.295 267.345 590.436 267.491
C 590.232 271.638 590.368 275.844 590.351 280.001
C 590.344 281.975 589.933 284.475 590.34 286.383
C 577.584 286.585 564.739 285.776 551.997 286.378
C 551.395 285.045 551.853 282.495 551.844 281.001
C 551.818 276.664 551.514 272.198 551.905 267.878 Z"
opacity="1" fill="rgb(6,44,62)" fill-rule="evenodd" />
<path d="
M 551.907 320.827
C 558.172 319.778 565.157 320.638 571.506 320.625
C 577.535 320.613 584.246 319.738 590.198 320.659
C 590.369 325.597 590.192 330.558 590.188 335.5
C 590.187 336.598 590.239 337.698 590.217 338.795
C 590.214 338.955 590.259 339.852 590.087 339.915
C 577.666 340.507 564.931 340.171 552.486 339.922
C 551.617 339.178 551.93 336.174 551.915 334.995
C 551.855 330.273 551.853 325.546 551.907 320.827 Z"
opacity="1" fill="rgb(127,136,155)" fill-rule="evenodd" />
<path d="
M 552.014 374.614
C 552.153 373.919 551.998 374.279 552.638 373.618
C 560.903 372.602 569.712 373.509 578.038 373.523
C 580.859 373.528 583.68 373.549 586.5 373.565
C 587.786 373.573 589.317 373.376 590.54 373.78
C 590.258 377.82 590.43 381.951 590.394 386.006
C 590.375 388.067 589.987 390.54 590.409 392.554
C 590.116 392.906 588.485 392.634 588.007 392.635
C 585.671 392.642 583.335 392.6 580.998 392.603
C 574.331 392.609 567.664 392.642 560.997 392.71
C 558.108 392.74 555.05 392.463 552.184 392.781
C 551.36 386.81 552.445 380.606 552.014 374.614 Z"
opacity="1" fill="rgb(123,131,152)" fill-rule="evenodd" />
<path d="
M 551.919 401.609
C 552.02 400.971 551.99 401.356 551.911 400.451
C 554.912 399.791 558.435 400.218 561.505 400.212
C 567.672 400.2 573.838 400.149 580.005 400.173
C 582.338 400.182 584.671 400.21 587.003 400.198
C 588.045 400.192 589.522 399.883 590.471 400.302
C 589.89 406.458 590.197 413.081 590.355 419.269
C 586.127 418.959 581.743 419.274 577.5 419.276
C 569.022 419.28 560.542 419.261 552.064 419.289
C 551.851 413.483 551.472 407.416 551.919 401.609 Z"
opacity="1" fill="rgb(5,45,63)" fill-rule="evenodd" />
<path d="
M 551.96 428.097
C 552.046 427.533 552.015 427.859 552.012 427.116
C 552.717 426.475 554.069 426.744 554.999 426.746
C 557.167 426.751 559.335 426.72 561.504 426.718
C 568.171 426.712 574.837 426.683 581.504 426.679
C 584.287 426.678 587.846 426.049 590.53 426.794
C 589.696 432.707 590.261 439.42 590.363 445.398
C 581.261 445.214 572.115 445.483 563.007 445.472
C 560.413 445.469 557.82 445.468 555.226 445.452
C 554.267 445.447 552.927 445.693 552.078 445.235
C 551.467 439.75 551.583 433.607 551.96 428.097 Z"
opacity="1" fill="rgb(5,44,62)" fill-rule="evenodd" />
<path d="
M 552.165 188.183
C 561.101 188.235 570.061 188.025 579.004 188.031
C 582.538 188.034 586.936 187.279 590.38 188.025
C 590.087 194.395 590.409 200.787 590.321 207.159
C 577.652 207.166 564.973 207.082 552.3 207.116
C 551.597 206.379 552.097 203.574 552.096 202.499
C 552.095 197.745 551.833 192.922 552.165 188.183 Z"
opacity="1" fill="rgb(7,44,61)" fill-rule="evenodd" />
<path d="
M 552.11 294.142
C 564.741 293.371 577.817 293.539 590.469 293.932
C 590.309 298.114 590.374 302.316 590.36 306.502
C 590.353 308.688 590.053 311.122 590.363 313.278
C 577.7 312.858 564.945 313.256 552.272 313.153
C 551.607 311.994 552.125 309.383 552.114 308.004
C 552.077 303.389 551.986 298.755 552.11 294.142 Z"
opacity="1" fill="rgb(6,45,63)" fill-rule="evenodd" />
<path d="
M 552.355 347.392
C 561.568 347.258 570.788 347.278 580.004 347.271
C 582.505 347.269 585.005 347.267 587.506 347.256
C 588.351 347.253 589.692 346.969 590.42 347.408
C 590.153 352.088 590.32 356.817 590.321 361.503
C 590.322 362.442 590.871 365.535 590.36 366.167
C 577.724 366.604 564.848 365.171 552.247 366.221
C 551.785 364.31 552.124 361.974 552.118 360.004
C 552.106 355.933 551.996 351.843 552.127 347.776
C 552.203 347.648 552.279 347.52 552.355 347.392 Z"
opacity="1" fill="rgb(6,44,62)" fill-rule="evenodd" />
<path d="
M 601.607 519.676
C 607.822 519.022 614.243 519.405 620.487 519.394
C 630.058 519.377 639.714 518.605 647.764 524.81
C 657.043 531.961 659.227 547.388 652.776 557.127
C 649.777 561.655 644.743 564.518 639.622 566.014
C 641.098 568.677 643.165 571.124 644.949 573.59
C 649.271 579.568 653.896 585.337 657.966 591.486
C 657.501 592.03 655.01 591.593 654.314 591.584
C 650.993 591.542 646.766 592.314 643.558 591.477
C 639.251 586.091 635.542 580.224 631.408 574.708
C 629.608 572.305 628.1 569.6 625.93 567.501
C 622.248 566.65 617.664 567.415 613.901 567.523
C 613.605 575.449 614.148 583.425 613.751 591.339
C 613.192 591.883 611.423 591.58 610.688 591.59
C 607.837 591.626 604.596 591.175 601.797 591.652
C 601.141 590.096 601.668 587.226 601.659 585.504
C 601.631 580.504 601.642 575.504 601.64 570.504
C 601.631 553.571 601.94 536.604 601.607 519.676 Z
M 613.896 531.411
C 613.584 535.914 613.777 540.49 613.772 545.003
C 613.768 548.79 613.54 552.684 613.896 556.457
C 618.741 556.124 623.683 556.477 628.544 556.411
C 631.415 556.373 634.358 556.362 637.036 555.193
C 645.209 551.626 646.883 538.72 639.437 533.368
C 634.785 530.024 628.556 530.945 623.164 530.938
C 620.903 530.935 618.624 530.856 616.365 530.939
C 615.53 530.97 614.55 530.867 613.896 531.411 Z"
opacity="1" fill="rgb(7,46,64)" fill-rule="evenodd" />
<path d="
M 666.486 524.6
C 667.046 519.045 674.387 515.85 678.037 520.923
C 678.856 522.061 679.122 523.489 679.188 524.863
C 679.332 527.894 678.813 531.001 678.401 533.99
C 678.014 536.807 677.664 539.642 675.941 542.014
C 674.433 544.089 672.5 544.758 669.999 544.842
C 668.354 544.898 666.791 544.453 666.589 542.57
C 668.064 539.676 671.121 535.747 669.77 532.168
C 669.365 531.094 668.264 530.312 667.65 529.355
C 666.749 527.953 666.452 526.237 666.486 524.6 Z"
opacity="1" fill="rgb(7,46,65)" fill-rule="evenodd" />
<path d="
M 688.862 579.043
C 691.003 576.266 693.498 573.741 696.075 571.372
C 697.263 571.552 699.208 574.367 700.149 575.205
C 702.771 577.542 705.917 579.275 709.292 580.249
C 713.675 581.514 719.236 581.867 723.461 579.82
C 727.915 577.662 730.545 571.854 727.35 567.494
C 724.499 563.604 718.374 562.243 714.008 560.973
C 703.668 557.966 692.453 553.625 691.58 541.256
C 691.37 538.275 691.662 535.331 692.476 532.46
C 696.362 518.74 714.143 516.301 725.678 520.426
C 729.48 521.786 732.983 523.814 736.075 526.408
C 736.739 526.965 738.963 528.627 738.87 529.515
C 738.057 531.695 734.972 533.693 733.494 535.501
C 733.144 535.929 732.117 537.646 731.608 537.719
C 726.8 532.865 719.37 529.413 712.462 530.062
C 707.276 530.549 702.714 533.786 703.263 539.496
C 703.877 545.885 711.897 547.544 716.896 549.015
C 726.722 551.905 738.581 555.584 740.567 567.147
C 740.946 569.351 740.926 571.752 740.675 573.97
C 739.041 588.371 723.391 594.061 710.633 592.087
C 704.23 591.096 698.165 588.487 693.231 584.252
C 691.532 582.795 690.271 581.001 688.679 579.481
C 688.74 579.335 688.801 579.189 688.862 579.043 Z"
opacity="1" fill="rgb(8,46,64)" fill-rule="evenodd" />

</svg>